<?xml version="1.0" encoding="utf-8"?>
<!-- Generator: Adobe Illustrator 24.0.0, SVG Export Plug-In . SVG Version: 6.00 Build 0)  -->
<svg version="1.1" id="Capa_1" xmlns="http://www.w3.org/2000/svg" xmlns:xlink="http://www.w3.org/1999/xlink" x="0px" y="0px"
	 viewBox="0 0 315.7 284.7" style="enable-background:new 0 0 315.7 284.7;" xml:space="preserve">
<style type="text/css">
	.st0{opacity:0.42;}
	.st1{fill:#FFFFFF;}
	.st2{fill:#2E3649;}
	.st3{fill:#2ABB6F;}
	.st4{fill:#148CF6;}
	.st5{fill:#F2C54E;}
	.st6{fill:#E22528;}
	.st7{fill:#E8EAF1;}
	.st8{fill:#F9F0DA;}
	.st9{fill:#EEB316;}
	.st10{fill:#39A54D;}
	.st11{fill:#7991FF;}
	.st12{fill:#FFE4E1;}
	.st13{fill:#F87C6A;}
	.st14{fill:#F3F4F7;}
	.st15{fill:#F62E7C;}
	.st16{fill:#CBCEDA;}
	.st17{fill:#5D6379;}
	.st18{fill:#E0E3ED;}
	.st19{fill:#8C91A5;}
	.st20{fill:#2E364A;}
	.st21{fill:#F3C73E;}
	.st22{fill:#A60701;}
	.st23{fill:#E22323;}
	.st24{fill:#1B8EFC;}
	.st25{fill:#33BD69;}
	.st26{fill:url(#SVGID_1_);}
	.st27{fill:url(#SVGID_2_);}
	.st28{fill:#66A8FB;}
	.st29{fill:url(#SVGID_3_);}
	.st30{fill:#E9E9E9;}
	.st31{fill:#F92E7C;}
	.st32{fill:#BF8000;}
	.st33{fill:#FFED84;}
	.st34{fill:url(#SVGID_4_);}
	.st35{fill:#BC054B;}
	.st36{fill:url(#SVGID_5_);}
	.st37{fill:#0D7D49;}
	.st38{fill:url(#SVGID_6_);}
	.st39{fill:#3AD781;}
	.st40{fill:#18B967;}
	.st41{fill:#F7F7F7;}
	.st42{fill:none;stroke:#F62E7C;stroke-width:2;stroke-linecap:round;stroke-miterlimit:10;}
	.st43{fill:#FDDEDE;}
	.st44{fill:#FFFFFF;stroke:#8C91A5;stroke-miterlimit:10;}
	.st45{fill:#1B8CFA;}
	.st46{fill:none;stroke:#FFFFFF;stroke-width:2;stroke-linecap:round;stroke-miterlimit:10;}
	.st47{fill:none;stroke:#FFFFFF;stroke-width:4;stroke-linecap:round;stroke-miterlimit:10;}
	.st48{fill:url(#SVGID_7_);}
	.st49{fill:url(#SVGID_8_);}
	.st50{fill:url(#SVGID_9_);}
	.st51{fill:url(#SVGID_10_);}
	.st52{fill:url(#SVGID_11_);}
	.st53{fill:url(#SVGID_12_);}
	.st54{fill:#CCCFD9;}
	.st55{fill:#E6879A;}
	.st56{clip-path:url(#SVGID_14_);}
	.st57{fill:url(#SVGID_15_);}
	.st58{fill:url(#SVGID_16_);}
	.st59{fill:url(#SVGID_17_);}
	.st60{fill:url(#SVGID_18_);}
	.st61{fill:url(#SVGID_19_);}
	.st62{fill:url(#SVGID_20_);}
	.st63{fill:url(#SVGID_21_);}
	.st64{fill:url(#SVGID_22_);}
	.st65{fill:url(#SVGID_23_);}
	.st66{fill:url(#SVGID_24_);}
	.st67{fill:url(#SVGID_25_);}
	.st68{fill:url(#SVGID_26_);}
	.st69{fill:url(#SVGID_27_);}
	.st70{fill:url(#SVGID_28_);}
	.st71{fill:url(#SVGID_29_);}
	.st72{fill:url(#SVGID_30_);}
	.st73{fill:url(#SVGID_31_);}
	.st74{fill:url(#SVGID_32_);}
	.st75{fill:url(#SVGID_33_);}
	.st76{fill:url(#SVGID_34_);}
	.st77{fill:url(#SVGID_35_);}
	.st78{fill:url(#SVGID_36_);}
	.st79{fill:url(#SVGID_37_);}
	.st80{fill:url(#SVGID_38_);}
	.st81{fill:url(#SVGID_39_);}
	.st82{fill:url(#SVGID_40_);}
	.st83{fill:url(#SVGID_41_);}
	.st84{fill:url(#SVGID_42_);}
	.st85{fill:url(#SVGID_43_);}
	.st86{fill:url(#SVGID_44_);}
	.st87{fill:url(#SVGID_45_);}
	.st88{fill:url(#SVGID_46_);}
	.st89{fill:url(#SVGID_47_);}
	.st90{fill:url(#SVGID_48_);}
	.st91{fill:url(#SVGID_49_);}
	.st92{fill:url(#SVGID_50_);}
	.st93{fill:url(#SVGID_51_);}
	.st94{fill:url(#SVGID_52_);}
	.st95{fill:url(#SVGID_53_);}
	.st96{fill:url(#SVGID_54_);}
	.st97{fill:url(#SVGID_55_);}
	.st98{clip-path:url(#SVGID_57_);}
	.st99{clip-path:url(#SVGID_59_);}
	.st100{fill:#C31020;}
	.st101{fill:#D83B02;}
	.st102{fill:#C8500F;}
	.st103{fill:#E61324;}
	.st104{fill:#EE3A17;}
	.st105{fill:#F5630C;}
	.st106{fill:#E64757;}
	.st107{fill:#ED6950;}
	.st108{fill:#F5874A;}
	.st109{fill:#E38088;}
	.st110{fill:#EC9687;}
	.st111{fill:#F5AF87;}
	.st112{fill:#D28A02;}
	.st113{fill:#BF9A00;}
	.st114{fill:#73A823;}
	.st115{fill:#E9A102;}
	.st116{fill:#DDBC00;}
	.st117{fill:#8ABB19;}
	.st118{fill:#FDB702;}
	.st119{fill:#FADF02;}
	.st120{fill:#B9CC4E;}
	.st121{fill:#FDC63D;}
	.st122{fill:#FCEF03;}
	.st123{fill:#D6E07C;}
	.st124{fill:#F2A9B8;}
	.st125{fill:#ECC5BF;}
	.st126{fill:#F0D4C7;}
	.st127{fill:#FDD969;}
	.st128{fill:#FFEF86;}
	.st129{fill:#E4EBBE;}
	.st130{fill:#3E7C3E;}
	.st131{fill:#1B6359;}
	.st132{fill:#0E777F;}
	.st133{fill:#42A345;}
	.st134{fill:#0E8071;}
	.st135{fill:#2193A3;}
	.st136{fill:#51BD58;}
	.st137{fill:#3E9C89;}
	.st138{fill:#3CA2BA;}
	.st139{fill:#8DD689;}
	.st140{fill:#5EBFAB;}
	.st141{fill:#62CADB;}
	.st142{fill:#407A82;}
	.st143{fill:#0F78C8;}
	.st144{fill:#1F3D67;}
	.st145{fill:#6D99A3;}
	.st146{fill:#1493CA;}
	.st147{fill:#2A5991;}
	.st148{fill:#A0C3D1;}
	.st149{fill:#19ADEE;}
	.st150{fill:#3977B3;}
	.st151{fill:#BEDAE4;}
	.st152{fill:#66CDF4;}
	.st153{fill:#64A0CA;}
	.st154{fill:#B8DEB8;}
	.st155{fill:#A9DBD1;}
	.st156{fill:#90DEE8;}
	.st157{fill:#E5EFF3;}
	.st158{fill:#B1E5F9;}
	.st159{fill:#A5CDE6;}
	.st160{fill:#5E4A9B;}
	.st161{fill:#503972;}
	.st162{fill:#773777;}
	.st163{fill:#735BBF;}
	.st164{fill:#674D8A;}
	.st165{fill:#8F3F8D;}
	.st166{fill:#866CE2;}
	.st167{fill:#806F9C;}
	.st168{fill:#AB55AB;}
	.st169{fill:#9A87E7;}
	.st170{fill:#9280B0;}
	.st171{fill:#C779C1;}
	.st172{fill:#723147;}
	.st173{fill:#613D30;}
	.st174{fill:#603830;}
	.st175{fill:#CA4452;}
	.st176{fill:#8C562D;}
	.st177{fill:#8A452F;}
	.st178{fill:#DE6C7D;}
	.st179{fill:#B98F67;}
	.st180{fill:#B87A68;}
	.st181{fill:#D6AE92;}
	.st182{fill:#E09B8F;}
	.st183{fill:#B29EFD;}
	.st184{fill:#B9AED3;}
	.st185{fill:#D6A1D6;}
	.st186{fill:#FDB6C4;}
	.st187{fill:#F5D5C2;}
	.st188{fill:#F8BFB2;}
	.st189{fill:#5D6378;}
	.st190{fill:#757B8C;}
	.st191{fill:#B2B5C4;}
	.st192{fill:#E1E4ED;}
	.st193{fill:#E9EBF2;}
	.st194{fill:#F4F5F8;}
	.st195{fill:#8D92A5;}
	.st196{fill:#BF084B;}
	.st197{fill:#FC307B;}
	.st198{fill:#FA5496;}
	.st199{fill:#FC88BD;}
	.st200{fill:#FDBBD6;}
	.st201{fill:url(#SVGID_60_);}
	.st202{fill:#976666;}
	.st203{fill:url(#SVGID_61_);}
	.st204{fill:url(#SVGID_62_);}
	.st205{fill:url(#SVGID_63_);}
	.st206{opacity:0.3;}
	.st207{fill:none;stroke:#66CDF4;stroke-width:2;stroke-miterlimit:10;}
	.st208{fill:none;stroke:#FDD969;stroke-width:2;stroke-miterlimit:10;}
	.st209{fill:url(#SVGID_64_);}
	.st210{fill:url(#SVGID_65_);}
	.st211{fill:url(#SVGID_66_);}
	.st212{fill:url(#SVGID_67_);}
	.st213{fill:url(#SVGID_68_);}
	.st214{fill:url(#SVGID_69_);}
	.st215{fill:url(#SVGID_70_);}
	.st216{fill:none;stroke:#FDB6C4;stroke-miterlimit:10;}
	.st217{fill:url(#SVGID_71_);}
	.st218{fill:none;stroke:#66CDF4;stroke-miterlimit:10;}
	.st219{fill:url(#SVGID_72_);}
	.st220{fill:url(#SVGID_73_);}
	.st221{fill:#794D4D;}
	.st222{fill:none;stroke:#FFFFFF;stroke-miterlimit:10;}
	.st223{fill:none;stroke:#E1E4ED;stroke-miterlimit:10;}
	.st224{fill:url(#SVGID_74_);}
	.st225{fill:#16AAA0;}
	.st226{fill:url(#SVGID_75_);}
	.st227{fill:url(#SVGID_76_);}
	.st228{fill:#0A5DC5;}
	.st229{fill:url(#SVGID_77_);}
	.st230{fill:url(#SVGID_78_);}
	.st231{fill:#3A2857;}
	.st232{fill:#AF3144;}
	.st233{fill:url(#SVGID_79_);}
	.st234{fill:url(#SVGID_80_);}
	.st235{fill:url(#SVGID_81_);}
	.st236{fill:url(#SVGID_82_);}
	.st237{fill:url(#SVGID_83_);}
	.st238{fill:url(#SVGID_84_);}
	.st239{fill:url(#SVGID_85_);}
	.st240{fill:url(#SVGID_86_);}
	.st241{fill:#F1F2F5;}
	.st242{fill:#FFEFC6;}
	.st243{fill:#DC8E78;}
	.st244{fill:#A40702;}
	.st245{fill:#F8B900;}
	.st246{fill:#E02323;}
	.st247{fill:#ECAD92;}
	.st248{fill:#C5FFD9;}
	.st249{fill:none;stroke:#412108;stroke-width:10;stroke-linecap:round;stroke-miterlimit:10;}
	.st250{fill:#412108;}
	.st251{fill:#E6A66B;}
	.st252{fill:#765B4E;}
	.st253{fill:#986414;}
	.st254{fill:#FEC202;}
	.st255{fill:#E3E6F0;}
	.st256{fill:#EB4F3D;}
	.st257{fill:#FD7C6C;}
	.st258{opacity:0.3;fill:#2E364A;}
	.st259{fill:#1591FB;}
	.st260{fill:#FEC8DD;}
	.st261{fill:url(#SVGID_87_);}
	.st262{fill:url(#SVGID_88_);}
	.st263{fill:#C7A9A1;}
	.st264{fill:#D6BBB6;}
	.st265{fill:none;stroke:#ED6950;stroke-width:2;stroke-linecap:round;stroke-miterlimit:10;}
	.st266{opacity:0.3;fill:none;stroke:#2E364A;stroke-linecap:round;stroke-miterlimit:10;}
	.st267{fill:#7EC1FD;}
	.st268{fill:#B2DBFD;}
	.st269{fill:none;stroke:#603830;stroke-width:2;stroke-linecap:round;stroke-miterlimit:10;}
	.st270{fill:#EBEDF4;}
	.st271{fill:#6566FB;}
	.st272{fill:#FFFFFF;stroke:#CED1DB;stroke-miterlimit:10;}
	.st273{fill:url(#SVGID_89_);}
	.st274{fill:url(#SVGID_90_);}
	.st275{fill:url(#SVGID_91_);}
	.st276{fill:url(#SVGID_92_);}
	.st277{fill:url(#SVGID_93_);}
	.st278{fill:url(#SVGID_94_);}
	.st279{fill:url(#SVGID_95_);}
	.st280{fill:url(#SVGID_96_);}
	.st281{fill:url(#SVGID_97_);}
	.st282{fill:url(#SVGID_98_);}
	.st283{fill:url(#SVGID_99_);}
	.st284{fill:url(#SVGID_100_);}
	.st285{fill:url(#SVGID_101_);}
	.st286{fill:#CED1DB;}
	.st287{fill:url(#SVGID_102_);}
	.st288{fill:url(#SVGID_103_);}
	.st289{fill:url(#SVGID_104_);}
	.st290{fill:url(#SVGID_105_);}
	.st291{fill:url(#SVGID_106_);}
	.st292{fill:url(#SVGID_107_);}
	.st293{fill:url(#SVGID_108_);}
	.st294{fill:url(#SVGID_109_);}
	.st295{fill:url(#SVGID_110_);}
	.st296{fill:url(#SVGID_111_);}
	.st297{fill:url(#SVGID_112_);}
	.st298{fill:url(#SVGID_113_);}
	.st299{fill:url(#SVGID_114_);}
	.st300{fill:#F7931E;}
	.st301{fill:none;stroke:#CED1DB;stroke-width:2;stroke-linecap:round;stroke-miterlimit:10;}
	.st302{fill:none;stroke:#FD307B;stroke-width:2;stroke-linecap:round;stroke-miterlimit:10;}
	.st303{fill:none;stroke:#1591FB;stroke-width:2;stroke-linecap:round;stroke-miterlimit:10;}
	.st304{fill:#F0065A;}
	.st305{fill:url(#SVGID_115_);}
	.st306{fill:#24BD5B;}
	.st307{fill:url(#SVGID_116_);}
	.st308{fill:#CEFFE2;}
	.st309{fill:none;stroke:#FEA9AA;stroke-width:5;stroke-linecap:round;stroke-miterlimit:10;}
	.st310{fill:url(#SVGID_117_);}
	.st311{fill:#F6B58F;}
	.st312{fill:#E5926E;}
	.st313{fill:url(#SVGID_118_);}
	.st314{fill:url(#SVGID_119_);}
	.st315{fill:#64DC8C;}
	.st316{fill:#FEC22E;}
	.st317{fill:url(#SVGID_120_);}
	.st318{fill:url(#SVGID_121_);}
	.st319{fill:url(#SVGID_122_);}
	.st320{fill:url(#SVGID_123_);}
	.st321{fill:url(#SVGID_124_);}
	.st322{fill:url(#SVGID_125_);}
	.st323{fill:url(#SVGID_126_);}
	.st324{fill:url(#SVGID_127_);}
	.st325{fill:url(#SVGID_128_);}
	.st326{fill:url(#SVGID_129_);}
	.st327{fill:url(#SVGID_130_);}
	.st328{fill:url(#SVGID_131_);}
	.st329{fill:#1384FB;}
	.st330{fill:url(#SVGID_132_);}
	.st331{fill:#129B58;}
	.st332{fill:url(#SVGID_133_);}
	.st333{fill:#D11C1F;}
	.st334{fill:url(#SVGID_134_);}
	.st335{fill:url(#SVGID_135_);}
	.st336{fill:#FD307B;}
	.st337{fill:url(#SVGID_136_);}
	.st338{fill:#23EDD2;}
	.st339{fill:url(#SVGID_137_);}
	.st340{fill:url(#SVGID_138_);}
	.st341{fill:#ECA927;}
	.st342{fill:url(#SVGID_139_);}
	.st343{fill:url(#SVGID_140_);}
	.st344{fill:url(#SVGID_141_);}
	.st345{fill:url(#SVGID_142_);}
	.st346{fill:url(#SVGID_143_);}
	.st347{fill:url(#SVGID_144_);}
	.st348{fill:url(#SVGID_145_);}
	.st349{fill:url(#SVGID_146_);}
	.st350{fill:url(#SVGID_147_);}
	.st351{fill:url(#SVGID_148_);}
	.st352{fill:url(#SVGID_149_);}
	.st353{fill:url(#SVGID_150_);}
	.st354{fill:url(#SVGID_151_);}
	.st355{fill:#FD78A9;}
	.st356{fill:url(#SVGID_152_);}
	.st357{fill:url(#SVGID_153_);}
	.st358{fill:url(#SVGID_154_);}
	.st359{fill:#C05D3E;}
	.st360{fill:url(#SVGID_155_);}
	.st361{fill:url(#SVGID_156_);}
	.st362{fill:url(#SVGID_157_);}
	.st363{fill:url(#SVGID_158_);}
	.st364{fill:url(#SVGID_159_);}
	.st365{fill:url(#SVGID_160_);}
	.st366{fill:url(#SVGID_161_);}
	.st367{fill:url(#SVGID_162_);}
	.st368{fill:url(#SVGID_163_);}
	.st369{fill:#FFF4D1;}
	.st370{fill:url(#SVGID_164_);}
	.st371{fill:url(#SVGID_165_);}
	.st372{fill:url(#SVGID_166_);}
	.st373{fill:url(#SVGID_167_);}
	.st374{fill:url(#SVGID_168_);}
	.st375{fill:url(#SVGID_169_);}
	.st376{fill:url(#SVGID_170_);}
	.st377{fill:url(#SVGID_171_);}
	.st378{fill:url(#SVGID_172_);}
	.st379{fill:url(#SVGID_173_);}
	.st380{fill:url(#SVGID_174_);}
	.st381{fill:url(#SVGID_175_);}
	.st382{fill:none;stroke:#E9A102;stroke-width:2;stroke-linecap:round;stroke-miterlimit:10;}
	.st383{fill:#1DD0B8;}
	.st384{fill:none;stroke:#E09B8F;stroke-linecap:round;stroke-miterlimit:10;}
	.st385{fill:none;stroke:#2E364A;stroke-width:2;stroke-linecap:round;stroke-miterlimit:10;}
	.st386{fill:none;stroke:url(#SVGID_176_);stroke-width:2;stroke-linecap:round;stroke-miterlimit:10;}
	.st387{fill:none;stroke:url(#SVGID_177_);stroke-width:2;stroke-linecap:round;stroke-miterlimit:10;}
	.st388{fill:none;stroke:url(#SVGID_178_);stroke-width:2;stroke-linecap:round;stroke-miterlimit:10;}
	.st389{fill:none;stroke:url(#SVGID_179_);stroke-width:2;stroke-linecap:round;stroke-miterlimit:10;}
	.st390{fill:url(#SVGID_180_);}
	.st391{fill:#4C291F;}
	.st392{fill:url(#SVGID_181_);}
	.st393{fill:url(#SVGID_182_);}
	.st394{fill:url(#SVGID_183_);}
	.st395{opacity:0.3;fill:#663F34;}
	.st396{fill:url(#SVGID_184_);}
	.st397{fill:none;stroke:#63392B;stroke-width:2;stroke-miterlimit:10;}
	.st398{fill:#63392B;}
	.st399{fill:none;stroke:#976666;stroke-linecap:round;stroke-miterlimit:10;}
	.st400{fill:url(#SVGID_185_);}
	.st401{fill:url(#SVGID_186_);}
	.st402{fill:url(#SVGID_187_);}
	.st403{fill:url(#SVGID_188_);}
	.st404{fill:url(#SVGID_189_);}
	.st405{fill:none;stroke:#63392B;stroke-linecap:round;stroke-miterlimit:10;}
	.st406{fill:url(#SVGID_190_);}
	.st407{fill:url(#SVGID_191_);}
	.st408{fill:url(#SVGID_192_);}
	.st409{fill:url(#SVGID_193_);}
	.st410{fill:url(#SVGID_194_);}
	.st411{fill:url(#SVGID_195_);}
	.st412{fill:url(#SVGID_196_);}
	.st413{fill:url(#SVGID_197_);}
	.st414{fill:url(#SVGID_198_);}
	.st415{fill:url(#SVGID_199_);}
	.st416{fill:url(#SVGID_200_);}
	.st417{fill:url(#SVGID_201_);}
	.st418{fill:url(#SVGID_202_);}
	.st419{fill:url(#SVGID_203_);}
	.st420{fill:url(#SVGID_204_);}
	.st421{fill:url(#SVGID_205_);}
	.st422{fill:url(#SVGID_206_);}
	.st423{fill:url(#SVGID_207_);}
	.st424{fill:url(#SVGID_208_);}
	.st425{fill:url(#SVGID_209_);}
	.st426{fill:url(#SVGID_210_);}
	.st427{fill:url(#SVGID_211_);}
	.st428{fill:url(#SVGID_212_);}
	.st429{fill:url(#SVGID_213_);}
	.st430{fill:url(#SVGID_214_);}
	.st431{fill:url(#SVGID_215_);}
	.st432{fill:url(#SVGID_216_);}
	.st433{fill:url(#SVGID_217_);}
	.st434{fill:url(#SVGID_218_);}
	.st435{fill:url(#SVGID_219_);}
	.st436{fill:url(#SVGID_220_);}
	.st437{fill:url(#SVGID_221_);}
	.st438{fill:url(#SVGID_222_);}
	.st439{fill:url(#SVGID_223_);}
	.st440{fill:url(#SVGID_224_);}
	.st441{fill:url(#SVGID_225_);}
	.st442{fill:url(#SVGID_226_);}
	.st443{fill:url(#SVGID_227_);}
	.st444{fill:url(#SVGID_228_);}
	.st445{fill:url(#SVGID_229_);}
	.st446{fill:url(#SVGID_230_);}
	.st447{fill:url(#SVGID_231_);}
	.st448{fill:url(#SVGID_232_);}
	.st449{fill:url(#SVGID_233_);}
	.st450{fill:url(#SVGID_234_);}
	.st451{fill:url(#SVGID_235_);}
	.st452{fill:url(#SVGID_236_);}
	.st453{fill:#704343;}
	.st454{fill:url(#SVGID_237_);}
	.st455{fill:url(#SVGID_238_);}
	.st456{fill:url(#SVGID_239_);}
	.st457{fill:url(#SVGID_240_);}
	.st458{fill:url(#SVGID_241_);}
	.st459{fill:url(#SVGID_242_);}
</style>
<g>
	<g>
		<linearGradient id="SVGID_1_" gradientUnits="userSpaceOnUse" x1="155.8011" y1="284.4762" x2="155.8011" y2="0">
			<stop  offset="0" style="stop-color:#FDD969"/>
			<stop  offset="0.9983" style="stop-color:#FEE99E"/>
		</linearGradient>
		<circle class="st26" cx="155.8" cy="142.2" r="142.2"/>
		<g>
			<g>
				<path class="st202" d="M191.3,182.6c-5-3.8-68.3-29-68.3-29v-29.4h-15.3H92.3v29.4c0,0-9.2,3.8-13.6,5.5
					c-3.9,1.5,14.9,99.3,14.9,99.3h14h99.5C207.2,258.4,194.6,185.1,191.3,182.6z"/>
				<path class="st255" d="M192.8,182.8c-5.1-3.8-68.8-29-68.8-29l0,0l-15.8,12.8l-15.8-12.8l-0.2-0.2c0,0-10.9,4.3-13.6,5.5
					C74.9,160.7,95.2,271,95.2,271l2.8,1.2c34.6,15.5,74,16.4,109.3,2.6l4-1.6C211.2,273.3,196.2,185.3,192.8,182.8z"/>
				<polygon class="st1" points="92.3,145 81.5,157.9 94.8,178.9 108.3,166.6 				"/>
				<g>
					<linearGradient id="SVGID_2_" gradientUnits="userSpaceOnUse" x1="96.2531" y1="218.6109" x2="24.7941" y2="191.0103">
						<stop  offset="0" style="stop-color:#E94E39"/>
						<stop  offset="0.9983" style="stop-color:#FD7C6A"/>
					</linearGradient>
					<path class="st27" d="M78.7,159.1l16.8,112l-4.2-2c-33.9-16.4-59.4-46.1-70.6-82.1l0,0c0.7-2.6,1.3-4.2,1.8-5.1
						C22.6,181.9,42.1,172.5,78.7,159.1z"/>
				</g>
				<path class="st257" d="M78.7,159.1l16.8,112l-0.3-0.1c-3.2-1.4-6.4-3-9.4-4.9h0L67,214.3l10.1-9.6l-15.3-4.2v-35L78.7,159.1z"/>
				<polygon class="st1" points="123,145.6 134.3,157.8 120.9,178.9 108.3,166.6 				"/>
				<g>
					<linearGradient id="SVGID_3_" gradientUnits="userSpaceOnUse" x1="118.9897" y1="221.7701" x2="211.2415" y2="221.7701">
						<stop  offset="0" style="stop-color:#E94E39"/>
						<stop  offset="0.9983" style="stop-color:#FD7C6A"/>
					</linearGradient>
					<path class="st29" d="M137,158.9l-18,120.7l3.4,0.8c28.8,7.1,59.2,4.9,86.6-6.3l2.2-0.9c0,0-13.7-84.8-18.2-92
						C193,181.2,174.5,174,137,158.9z"/>
				</g>
				<polygon class="st257" points="137,158.9 119,279.7 122.4,280.5 148.8,214.3 138.7,204.8 154,200.5 154,165.7 				"/>
				<path class="st258" d="M106.2,151.2c7.1,14.7,10.3,19.5,20.5,22.7c6,1.9,12.3,2.8,18.5,2.8c8.3,0,19.8-3.3,22-5.7l-32.9-13.2
					L123,145.6v-21.5H92.3v16C93.7,140.7,101.8,142.1,106.2,151.2z"/>
				<linearGradient id="SVGID_4_" gradientUnits="userSpaceOnUse" x1="103.5376" y1="173.2987" x2="112.5565" y2="269.7622">
					<stop  offset="0" style="stop-color:#64DC8C"/>
					<stop  offset="1" style="stop-color:#1DD0B8"/>
				</linearGradient>
				<path class="st34" d="M112.4,186l5-10.6l-8.9-8.8l-9.2,8.3l5.2,11.1l-5.2,86.8l0.1,0.1c6,2.7,12.2,4.9,18.5,6.5L112.4,186z"/>
			</g>
			<path class="st202" d="M119.7,135.5L119.7,135.5c-6.1,4.8-16.1,4.8-22.2-0.1l-0.1-0.1c-7.6-6-11.7-13.2-16-22.5l-1.8-5.6
				c-1.9-5.8-3.2-11.8-3.4-18c-0.2-4.5,0.1-9.1,0.9-13.6v0c2.1-12.3,13.6-21.4,27.2-21.4h8.7c13.6,0,25.1,9.1,27.2,21.4v0
				c1,6,1.2,12.1,0.6,18.2c-0.5,4.4-1.5,8.6-2.8,12.8l-1.9,5.9C131.6,122.1,127.4,129.5,119.7,135.5z"/>
			<path class="st20" d="M76.1,86.8c0,0,1.4-20.7-1.1-25.8c0,0-5.5-1.7-5.1-5.5s3.7-6,3.7-6s0.1-6.7,3.7-7.2s3.7-5.1,9.6-4.2
				c5.8,0.8,6.1-3.4,11-2.5c5,0.8,12.3-5.7,18.8-0.1c6.5,5.6,5.6,0,12,1.3c6.4,1.3,7.6,6.5,11,8.6c3.4,2.1,8,3,6.8,8.5
				c-1.3,5.5-4.9,3.9-4.9,3.9S141,84.9,141,88.2c0,0-1.3-10-5.1-10.4s-10.4-10.8-10.4-10.8s-19.6-6.9-33.7,1.7c0,0-3.8,7.2-8.1,9.7
				C79.5,81.1,76.1,86.8,76.1,86.8z"/>
			<path class="st202" d="M139.2,92c0,0,2.1-11.3,6.8-4.9c4.7,6.4-3,19.4-6.2,15C136.5,97.8,139.2,92,139.2,92z"/>
			<path class="st202" d="M77.9,92c0,0-2.1-11.3-6.8-4.9c-4.7,6.4,3,19.4,6.2,15C80.6,97.8,77.9,92,77.9,92z"/>
		</g>
		<g>
			<path class="st1" d="M116.6,118.2c0,3.6-3.7,6.5-8.3,6.5s-8.3-2.9-8.3-6.5c0,0,3.7,0,8.3,0S116.6,118.2,116.6,118.2z"/>
			<path class="st20" d="M87.8,88.1c-0.3,0-0.7-0.2-0.9-0.5c-0.3-0.5-0.1-1.1,0.3-1.4c0.3-0.2,7.7-4.7,16.1-1
				c0.5,0.2,0.7,0.8,0.5,1.3c-0.2,0.5-0.8,0.7-1.3,0.5c-7.4-3.3-14.2,0.8-14.2,0.8C88.1,88,87.9,88.1,87.8,88.1z"/>
			<path class="st20" d="M128.8,88.1c-0.2,0-0.4,0-0.5-0.1c-0.1,0-6.8-4.1-14.2-0.8c-0.5,0.2-1.1,0-1.3-0.5c-0.2-0.5,0-1.1,0.5-1.3
				c8.4-3.7,15.8,0.8,16.1,1c0.5,0.3,0.6,0.9,0.3,1.4C129.5,87.9,129.1,88.1,128.8,88.1z"/>
			<circle class="st20" cx="95.3" cy="93.4" r="1.3"/>
			<circle class="st20" cx="121.2" cy="93.4" r="1.3"/>
			<path class="st453" d="M109.1,113.2l-0.4-0.9l3.2-1.4c2.2-1-0.5-10.6-1.6-14.6c-0.3-1.2-0.6-2.1-0.7-2.6c-0.6-3,1.3-5.5,1.4-5.6
				l0.8,0.6c0,0-1.7,2.3-1.2,4.8c0.1,0.5,0.4,1.4,0.7,2.6c2,7.3,3.8,14.6,1.1,15.8L109.1,113.2z"/>
		</g>
		<g>
			<polygon class="st20" points="184.4,116.8 170.3,204 260.4,204.3 249,171.5 245.2,116.8 195.6,105 			"/>
			<g>
				<path class="st182" d="M266.7,204.9c-3.7-2.5-42.5-15.6-42.5-15.6v-19.3h-11.1H202v19.3c0,0-45.8,16.5-49.5,19
					C150.2,210,141,258,141,258h72.1l24.9,0.3C238,258.3,269.1,206.6,266.7,204.9z"/>
				<path class="st255" d="M264.1,181.4c-11.5,12.3-31.6,10.8-31.6,10.8l-7.4-2.6l-11.4,8.4l-11.4-8.4l-0.1-0.1
					c0,0-46,16.6-49.7,19.1c-2.4,1.6-16.5,74.7-16.5,74.7l0.8,0.1c35.7,5.1,72-3.9,101.3-24.9l0,0
					C238,258.3,266.1,179.2,264.1,181.4z"/>
				<path class="st1" d="M202,183.8l-7.9,8.4l5.8,8.3c2.8,4,8.7,4,11.6,0.1l2-2.8L202,183.8z"/>
				<g>
					<linearGradient id="SVGID_5_" gradientUnits="userSpaceOnUse" x1="195.3865" y1="250.1606" x2="144.1338" y2="230.3646">
						<stop  offset="0" style="stop-color:#E94E39"/>
						<stop  offset="0.9983" style="stop-color:#FD7C6A"/>
					</linearGradient>
					<path class="st36" d="M192.2,192.9l13.7,82.5l0,0.1c-19.9,7.8-45.8,11.3-69.2,7.7l-0.9-0.1c0,0,12.4-70.5,15.6-75.3
						C151.5,207.9,165.7,201.8,192.2,192.9z"/>
				</g>
				<polygon class="st257" points="192.2,192.9 205.9,275.6 201.1,277.3 183.6,229.1 190.9,222.9 179.9,220.1 179.9,197.1 				"/>
				<path class="st1" d="M224.2,184.1l8.2,8l-6.3,9c-2.4,3.4-7.5,3.5-10,0.1l-2.5-3.4L224.2,184.1z"/>
				<linearGradient id="SVGID_6_" gradientUnits="userSpaceOnUse" x1="209.4176" y1="201.4654" x2="215.3744" y2="265.1769">
					<stop  offset="0" style="stop-color:#64DC8C"/>
					<stop  offset="1" style="stop-color:#1DD0B8"/>
				</linearGradient>
				<path class="st38" d="M216.5,210.6l3.6-6.9l-6.5-5.8l-6.7,5.4l3.8,7.3l-5.1,63.7l0.2,1.3l0,0c4.4-1.6,8.7-3.4,12.9-5.6l1.7-8.5
					L216.5,210.6z"/>
				<path class="st182" d="M291.6,118.4l-0.6-12c-0.1-1.7-1-3.3-2.5-4.2c-1.5-0.9-3.2-2.4-4-4.9c-1.6-4.8-3.2-26.6-3.2-26.6
					s2.8-1.6,4,3.6c0.7,3.2,2,6.5,2.8,8.5c0.2,0.6,1,0.5,1.1-0.1l4.7-26.6c0.2-0.9,1.1-1.5,2-1.4l0,0c1,0.1,1.7,1,1.6,2l-1.9,17.9
					l1.6,0.1l3.5-19.3c0.2-0.8,1-1.4,1.8-1.2l0,0c0.8,0.1,1.4,0.9,1.3,1.7l-2.3,19.9l1.5,0.3l4.3-17.5c0.2-0.8,1-1.3,1.8-1l0,0
					c0.7,0.2,1.1,0.9,1,1.6l-3.4,18.2l1.6,0.5l4.8-12.8c0.3-0.7,1-1,1.7-0.7l0,0c0.6,0.3,0.9,0.9,0.7,1.5l-3.7,13.6
					c0,0-0.9,18-2.6,20.7c-0.3,0.5-0.9,1.1-1.4,1.7c-1,1-1.6,2.4-1.6,3.8v12.9H291.6z"/>
				<g>
					<linearGradient id="SVGID_7_" gradientUnits="userSpaceOnUse" x1="218.8712" y1="189.0169" x2="315.1611" y2="189.0169">
						<stop  offset="0" style="stop-color:#E94E39"/>
						<stop  offset="0.9983" style="stop-color:#FD7C6A"/>
					</linearGradient>
					<path class="st48" d="M218.9,269.8L218.9,269.8c17.8-8.5,33.5-20.9,46-36.2l1.9-2.3l44.9-57.9c2.6-3.4,3.8-7.6,3.4-11.8
						l-4.2-53.3h-21l-0.2,41.8c0.1,3.3-1.2,6.5-3.5,8.9l-22.2,22.5c0,0-7.9,8.4-29.7,11.8L218.9,269.8"/>
				</g>
				<path class="st257" d="M232.4,192.1l-13.6,77.8l0.3-0.2c2.5-1.3,5-2.6,7.4-4l0,0l13.6-36.6l-7.3-6.3l11.1-2.8v-28.9L232.4,192.1
					z"/>
				<path class="st258" d="M264.1,181.4c0,0-6.9,6.8-20.1,9.8c0,0-6.2,0.4-11.6,1l-8.2-8v-14.1H202v10.5c1,0.3,6.8,1.3,10,7.2
					c5.1,9.6,7.7,14.8,15,16.9c4.4,1.3,8.8,0.6,13.2-0.2C261.6,200.7,262.5,182.9,264.1,181.4"/>
				<path class="st182" d="M224.7,171.9L224.7,171.9c-6.1,4.6-16.1,4.6-22.2,0l-0.1-0.1c-7.6-5.7-11.7-12.7-16-21.6l-1.8-5.3
					c-1.9-5.5-3.2-11.3-3.4-17.3c-0.2-4.3,0.1-8.7,0.9-13v0c2.1-11.8,13.6-20.5,27.2-20.5h8.7c13.6,0,25.1,8.7,27.2,20.5v0
					c1,5.8,1.2,11.6,0.6,17.4c-0.5,4.2-1.5,8.3-2.8,12.2l-1.9,5.7C236.6,159,232.5,166.1,224.7,171.9z"/>
				<path class="st182" d="M240.5,140.7c0,0,2-10.3,6.2-4.5c4.3,5.9-2.7,17.7-5.7,13.7C238,145.9,240.5,140.7,240.5,140.7z"/>
				<path class="st182" d="M186.4,140.7c0,0-2-10.3-6.2-4.5c-4.3,5.9,2.7,17.7,5.7,13.7C188.9,145.9,186.4,140.7,186.4,140.7z"/>
			</g>
			<g>
				<path class="st1" d="M220.1,160.6c0,3.6-2.9,6.5-6.5,6.5c-3.6,0-6.5-2.9-6.5-6.5c0,0,2.9,0,6.5,0
					C217.2,160.6,220.1,160.6,220.1,160.6z"/>
				<path class="st20" d="M192.6,134.1c-0.3,0-0.7-0.2-0.9-0.5c-0.3-0.5-0.1-1.1,0.3-1.4c0.3-0.2,7.7-4.7,16.1-1
					c0.5,0.2,0.7,0.8,0.5,1.3c-0.2,0.5-0.8,0.7-1.3,0.5c-7.4-3.3-14.2,0.8-14.2,0.8C193,134.1,192.8,134.1,192.6,134.1z"/>
				<path class="st20" d="M233.7,134.1c-0.2,0-0.4,0-0.5-0.1c-0.1,0-6.8-4.1-14.2-0.8c-0.5,0.2-1.1,0-1.3-0.5s0-1.1,0.5-1.3
					c8.4-3.7,15.8,0.8,16.1,1c0.5,0.3,0.6,0.9,0.3,1.4C234.3,133.9,234,134.1,233.7,134.1z"/>
				<circle class="st20" cx="200.9" cy="139.9" r="1.3"/>
				<circle class="st20" cx="225.5" cy="139.9" r="1.3"/>
				<path class="st202" d="M214,155.1c-0.4,0-0.8-0.1-1.1-0.2l0.4-0.9c0.7,0.4,2.5-0.2,3.7-0.7c-0.4-2.2-2.2-13.3-2.4-14.6
					c-0.2-1.5,1-3.9,1.2-4.2l0.9,0.5c-0.3,0.6-1.2,2.5-1.1,3.6c0.2,1.4,2.4,15,2.4,15l0.1,0.4l-0.3,0.2
					C217.5,154.2,215.5,155.1,214,155.1z"/>
			</g>
			<path class="st20" d="M162.2,203.6l24.5-8.8l0-51.1c0-8.7,2.4-17.2,7-24.5c1.7-2.7,3.5-5.8,5.2-8.8c0,0,36.4-14.2,40.6,33.7
				l2.5,47.2l1.5-0.1c4.7-0.5,9-2.1,13-4.6l0,0c-2.1-5.7-3.7-13.1-4.1-22.8c-0.7-18,4.3-62.7-20.5-73.8c-8.2-3.6-31.1-8.7-35.3,3.4
				c0,0-17.5-4.6-17.8,37.8c-0.1,15.1-2.6,30.1-7.3,44.4L162.2,203.6z"/>
		</g>
		<g>
			<polygon class="st1" points="95.3,259.7 104.3,260.1 104.3,284.7 95.5,284.5 			"/>
			<g>
				<linearGradient id="SVGID_8_" gradientUnits="userSpaceOnUse" x1="70.3108" y1="266.0087" x2="61.0392" y2="199.9731">
					<stop  offset="0" style="stop-color:#1591FB"/>
					<stop  offset="1" style="stop-color:#9999FC"/>
				</linearGradient>
				<path class="st49" d="M39.3,252.5l-7-41.9l60.1-3.1l6.6,52.3l-3.4-0.1v-1.4l-53.4-3.2C40.7,255,39.5,253.9,39.3,252.5z"/>
			</g>
			<g>
				<linearGradient id="SVGID_9_" gradientUnits="userSpaceOnUse" x1="67.5153" y1="286.9476" x2="-2.600559e-02" y2="219.4064">
					<stop  offset="0" style="stop-color:#E94E39"/>
					<stop  offset="0.9983" style="stop-color:#FD7C6A"/>
				</linearGradient>
				<path class="st50" d="M20.7,187c0,0-23.9,80.4-20.4,88c0,0.1,0.1,0.2,0.1,0.2c2.7,5.7,8.6,9.4,14.9,9.4l80.1-0.1v-26.1
					l-53.9-3.3c-1.1-0.4-2-1-2.4-2.6l-7-41.9L20.7,187z"/>
			</g>
			<path class="st202" d="M104.3,284.7h31.2c0.3,0,0.5-0.1,0.8-0.2l1.9-0.9c1-0.5,1.3-1.8,0.6-2.6h0c-0.7-0.8-0.5-2.1,0.5-2.6
				l0.8-0.5c0.9-0.5,1.1-1.8,0.4-2.6l0,0c-0.7-0.8-0.5-2.1,0.5-2.6l0.7-0.4c1-0.5,1.2-1.8,0.4-2.7l0,0c-0.7-0.8-0.6-1.9,0.3-2.5
				l1.7-1.3c0.8-0.6,0.9-1.6,0.4-2.4l-1.1-1.4c-0.3-0.4-0.8-0.7-1.4-0.7c-2.4,0-9.4,0-12.4-0.1c-3.1,0-2.6-7.8-6-7.1
				c-3.3,0.6-12.6,3.2-14.3,6.2c-1.7,3-4.9,2.7-4.9,2.7V284.7z"/>
		</g>
	</g>
	<path class="st20" d="M91,93.3c-0.2,0-0.3-0.1-0.4-0.2c-0.1-0.2-0.1-0.5,0.2-0.7c0.2-0.1,4.4-2.7,9.2-0.6c0.3,0.1,0.4,0.4,0.3,0.7
		c-0.1,0.3-0.4,0.4-0.7,0.3c-4.3-1.9-8.2,0.5-8.2,0.5C91.2,93.3,91.1,93.3,91,93.3z"/>
	<path class="st20" d="M125.6,93.3c-0.1,0-0.2,0-0.3-0.1c0,0-4-2.4-8.2-0.5c-0.3,0.1-0.5,0-0.7-0.3c-0.1-0.3,0-0.5,0.3-0.7
		c4.8-2.1,9,0.4,9.2,0.6c0.2,0.1,0.3,0.5,0.2,0.7C125.9,93.2,125.7,93.3,125.6,93.3z"/>
	<path class="st20" d="M195.8,139.9c-0.2,0-0.3-0.1-0.4-0.2c-0.1-0.2-0.1-0.5,0.2-0.7c0.2-0.1,4.4-2.7,9.2-0.6
		c0.3,0.1,0.4,0.4,0.3,0.7c-0.1,0.3-0.4,0.4-0.7,0.3c-4.3-1.9-8.2,0.5-8.2,0.5C196,139.9,195.9,139.9,195.8,139.9z"/>
	<path class="st20" d="M230.4,139.9c-0.1,0-0.2,0-0.3-0.1c0,0-4-2.4-8.2-0.5c-0.3,0.1-0.5,0-0.7-0.3c-0.1-0.3,0-0.5,0.3-0.7
		c4.8-2.1,9,0.4,9.2,0.6c0.2,0.1,0.3,0.5,0.2,0.7C230.8,139.8,230.6,139.9,230.4,139.9z"/>
</g>
</svg>
