<?xml version="1.0"?>
<svg xmlns="http://www.w3.org/2000/svg" xmlns:xlink="http://www.w3.org/1999/xlink" xmlns:svgjs="http://svgjs.com/svgjs" version="1.1" width="512" height="512" x="0" y="0" viewBox="0 0 509.978 509.978" style="enable-background:new 0 0 512 512" xml:space="preserve" class=""><g><g xmlns="http://www.w3.org/2000/svg" id="XMLID_482_"><path id="XMLID_483_" d="m241.392 120.592c-40.788 40.789-40.788 107.157 0 147.946 40.883 40.883 107.058 40.888 147.945 0 40.883-40.883 40.888-107.056 0-147.946-40.78-40.778-107.151-40.795-147.945 0zm134.375 88.623h-45v45h-30v-45h-45v-30h45v-45h30v45h45z" fill="#b71f22" data-original="#000000" style="" class=""/><path id="XMLID_486_" d="m452.977 56.954c-75.879-75.88-199.346-75.88-275.225 0-36.758 36.757-57 85.629-57.001 137.611 0 107.557 87.041 194.613 194.613 194.613 107.557 0 194.613-87.041 194.613-194.613.001-51.982-20.242-100.854-57-137.611zm-42.427 232.798c-52.608 52.608-137.758 52.613-190.371 0-52.485-52.485-52.485-137.886 0-190.372 52.485-52.485 137.885-52.485 190.371 0 52.608 52.609 52.615 137.757 0 190.372z" fill="#b71f22" data-original="#000000" style="" class=""/><path id="XMLID_490_" d="m13.158 433.133c-17.544 17.545-17.544 46.094.001 63.639 17.519 17.521 46.066 17.572 63.619.021l68.737-68.48-63.64-63.64z" fill="#b71f22" data-original="#000000" style="" class=""/><path id="XMLID_491_" d="m128.065 318.657-24.937 24.844 63.641 63.64 25.028-24.935c-24.73-16.358-46.708-37.967-63.732-63.549z" fill="#b71f22" data-original="#000000" style="" class=""/></g></g></svg>
