<?xml version="1.0"?>
<svg xmlns="http://www.w3.org/2000/svg" xmlns:xlink="http://www.w3.org/1999/xlink" xmlns:svgjs="http://svgjs.com/svgjs" version="1.1" width="512" height="512" x="0" y="0" viewBox="0 0 511.998 511.998" style="enable-background:new 0 0 512 512" xml:space="preserve" class=""><g><g xmlns="http://www.w3.org/2000/svg"><path d="m29.999 200.654v288.09l167.971-142.259z" fill="#ffffff" data-original="#000000" style="" class=""/><path d="m313.872 346.621 168.127 143.324v-289.29z" fill="#ffffff" data-original="#000000" style="" class=""/><path d="m48.961 511.998h412.664l-205.658-175.319z" fill="#ffffff" data-original="#000000" style="" class=""/><path d="m81 159.265-31.969 18.183 31.969 27.756z" fill="#ffffff" data-original="#000000" style="" class=""/><path d="m430.998 159.265v45.939l31.97-27.756z" fill="#ffffff" data-original="#000000" style="" class=""/><path d="m201 74.999h109.998v30.993h-109.998z" fill="#ffffff" data-original="#000000" style="" class=""/><path d="m246.305 305.549c5.608-4.75 13.833-4.737 19.425.031l25.053 21.357 110.215-95.689v-171.25c0-3.979-1.58-7.794-4.393-10.606l-45-44.999c-2.812-2.813-6.628-4.393-10.606-4.393h-214.999c-8.284 0-15 6.716-15 15v216.249l110.134 95.617zm-75.305-245.55c0-8.284 6.716-15 15-15h139.998c8.284 0 15 6.716 15 15v60.993c0 8.284-6.716 15-15 15h-139.998c-8.284 0-15-6.716-15-15zm15 105.999h139.998c8.284 0 15 6.716 15 15s-6.716 15-15 15h-139.998c-8.284 0-15-6.716-15-15s6.716-15 15-15zm-15 75.006c0-8.284 6.716-15 15-15h139.998c8.284 0 15 6.716 15 15s-6.716 15-15 15h-139.998c-8.284 0-15-6.716-15-15z" fill="#ffffff" data-original="#000000" style="" class=""/></g></g></svg>
