<svg id="flat" height="512" viewBox="0 0 64 64" width="512" xmlns="http://www.w3.org/2000/svg" xmlns:xlink="http://www.w3.org/1999/xlink"><pattern id="New_Pattern_Swatch_38" height="6" patternUnits="userSpaceOnUse" viewBox="0 0 6 6" width="6" data-name="New Pattern Swatch 38"><path d="m0 0h6v6h-6z" fill="none"/><path d="m0 0h6v6h-6z" fill="#6e6e6e"/></pattern><path d="m5 48v-29a16 16 0 0 1 16-16 16 16 0 0 1 16 16v29z" fill="#806b53"/><path d="m17 37h8v8h-8z" fill="#f2cca0"/><path d="m33 18v9a12 12 0 0 1 -12 12 12 12 0 0 1 -12-12v-9a2 2 0 0 1 2-2h1a3 3 0 0 0 3-3 3 3 0 0 0 3 3h13a2 2 0 0 1 2 2z" fill="#ffd7a8"/><path d="m19 22h4v2h-4z" fill="url(#New_Pattern_Swatch_38)"/><path d="m21 62h-18v-10.64639a4 4 0 0 1 2.05743-3.49661l6.94257-3.857 9 1z" fill="#bf9f78"/><path d="m21 45 9-1 6.94257 3.857a4 4 0 0 1 2.05743 3.49661v10.64639h-18z" fill="#b39570"/><path d="m9 22h4v2h-4z" fill="url(#New_Pattern_Swatch_38)"/><path d="m29 22h4v2h-4z" fill="url(#New_Pattern_Swatch_38)"/><circle cx="26" cy="23" fill="#a8d8ff" r="3"/><path d="m26 27a4 4 0 1 1 4-4 4.00458 4.00458 0 0 1 -4 4zm0-6a2 2 0 1 0 2 2 2.002 2.002 0 0 0 -2-2z" fill="#959595"/><circle cx="16" cy="23" fill="#a8d8ff" r="3"/><path d="m16 27a4 4 0 1 1 4-4 4.00458 4.00458 0 0 1 -4 4zm0-6a2 2 0 1 0 2 2 2.002 2.002 0 0 0 -2-2z" fill="#959595"/><path d="m20 27h2v4h-2z" fill="#bf9f78"/><path d="m21 35a7.99016 7.99016 0 0 1 -4.12354-1.14355l1.03223-1.7129a6.103 6.103 0 0 0 6.18262 0l1.03223 1.7129a7.99016 7.99016 0 0 1 -4.12354 1.14355z" fill="#bf9f78"/><path d="m7 53h2v9h-2z" fill="#b39570"/><path d="m33 53h2v9h-2z" fill="#a68a68"/><path d="m16.36424 41.90949 4.63576 3.09051-2.36844 3.15792a1 1 0 0 1 -1.44019.16822l-5.19137-4.32614 1.84062-1.84062a2 2 0 0 1 2.52362-.24989z" fill="#eee"/><path d="m25.63576 41.90949-4.63576 3.09051 2.36844 3.15792a1 1 0 0 0 1.44019.16822l5.19137-4.32614-1.84062-1.84062a2 2 0 0 0 -2.52362-.24989z" fill="#eee"/><path d="m51 55h8a2 2 0 0 0 2-2v-26a2 2 0 0 0 -2-2h-8z" fill="#f2dba1"/><path d="m51.44721 60.3396 2.10558-1.05278a1 1 0 0 1 .89442 0l2.10558 1.05278a1 1 0 0 0 1.44721-.89442v-4.44518h-8v4.44518a1 1 0 0 0 1.44721.89442z" fill="#588fb3"/><rect fill="#f38262" height="30" rx="2" width="19" x="37" y="25"/><rect fill="#eac761" height="6" rx="1" width="6" x="43" y="29"/><path d="m48 36h-4a2.00229 2.00229 0 0 1 -2-2v-4a2.00229 2.00229 0 0 1 2-2h4a2.00229 2.00229 0 0 1 2 2v4a2.00229 2.00229 0 0 1 -2 2zm-4-6v4h4.00146l-.00146-4z" fill="#ffdd6d"/><g fill="#bd664d"><path d="m40 38h2v2h-2z"/><path d="m44 38h8v2h-8z"/><path d="m42 42h2v2h-2z"/><path d="m46 42h6v2h-6z"/><path d="m42 46h2v2h-2z"/><path d="m46 46h6v2h-6z"/></g></svg>